<svg width="46" height="38" viewBox="0 0 46 38" fill="none" xmlns="http://www.w3.org/2000/svg">
<path d="M23 29.7928C34.598 29.7928 44 23.6143 44 15.9928C44 8.37128 34.598 2.19281 23 2.19281C11.402 2.19281 2 8.37128 2 15.9928C2 23.6143 11.402 29.7928 23 29.7928Z" fill="#F3DC0D" stroke="black" stroke-width="4" stroke-linecap="round" stroke-linejoin="round"/>
<path d="M2 15.9928V23.701C1.99908 24.8587 2.25587 26.002 2.75173 27.0481C3.24759 28.0942 3.97008 29.0168 4.8668 29.749C9.449 33.484 15.8786 35.809 23 35.809C30.1214 35.809 36.551 33.4852 41.1332 29.749C42.0299 29.0168 42.7524 28.0942 43.2483 27.0481C43.7441 26.002 44.0009 24.8587 44 23.701V15.9928" fill="#F3DC0D"/>
<path d="M2 15.9928V23.701C1.99908 24.8587 2.25587 26.002 2.75173 27.0481C3.24759 28.0942 3.97008 29.0168 4.8668 29.749C9.449 33.484 15.8786 35.809 23 35.809C30.1214 35.809 36.551 33.4852 41.1332 29.749C42.0299 29.0168 42.7524 28.0942 43.2483 27.0481C43.7441 26.002 44.0009 24.8587 44 23.701V15.9928" stroke="black" stroke-width="4" stroke-linecap="round" stroke-linejoin="round"/>
<path d="M37.5302 10.4656C39.338 12.07 40.4 13.9744 40.4 15.9928C40.3738 17.387 39.9043 18.7366 39.0596 19.846C38.0948 21.1212 36.8877 22.1933 35.5076 23.0008" fill="#F3DC0D"/>
<path d="M37.5302 10.4656C39.338 12.07 40.4 13.9744 40.4 15.9928C40.3738 17.387 39.9043 18.7366 39.0596 19.846C38.0948 21.1212 36.8877 22.1933 35.5076 23.0008" stroke="black" stroke-width="4" stroke-linecap="round" stroke-linejoin="round"/>
<path d="M29.6978 6.6088C31.4235 7.03511 33.0907 7.67019 34.6628 8.5Z" fill="#F3DC0D"/>
<path d="M29.6978 6.6088C31.4235 7.03511 33.0907 7.67019 34.6628 8.5" stroke="black" stroke-width="4" stroke-linecap="round" stroke-linejoin="round"/>
<path d="M23 35.6632V29.9218" stroke="black" stroke-width="4" stroke-linecap="round" stroke-linejoin="round"/>
<path d="M30.0002 34.858V29.1814" stroke="black" stroke-width="4" stroke-linecap="round" stroke-linejoin="round"/>
<path d="M36.9998 32.2378V29.7928" stroke="black" stroke-width="4" stroke-linecap="round" stroke-linejoin="round"/>
<path d="M15.9998 34.8646V29.1748" stroke="black" stroke-width="4" stroke-linecap="round" stroke-linejoin="round"/>
<path d="M9.00024 32.284V26.6314" stroke="black" stroke-width="4" stroke-linecap="round" stroke-linejoin="round"/>
<path d="M33.9704 14.047L30.056 11.395C29.879 11.2801 29.6793 11.2046 29.4704 11.1736L13.2074 8.52162C12.7813 8.44248 12.3412 8.53431 11.9822 8.77722C11.9136 8.81808 11.8538 8.87211 11.8062 8.93621C11.7586 9.00031 11.7241 9.0732 11.7048 9.15068C11.6855 9.22816 11.6818 9.30869 11.6937 9.38763C11.7057 9.46657 11.7332 9.54236 11.7746 9.61062L20.8544 24.196C20.969 24.3447 21.1151 24.4662 21.2823 24.5515C21.4494 24.6369 21.6334 24.6842 21.821 24.6898C21.878 24.6946 21.935 24.6976 21.9908 24.6976C22.3385 24.7074 22.6792 24.5987 22.9568 24.3892L34.0568 15.1072C34.1443 15.0451 34.2142 14.9613 34.2595 14.8641C34.3048 14.7668 34.3241 14.6595 34.3153 14.5525C34.3066 14.4456 34.2703 14.3428 34.2098 14.2541C34.1493 14.1655 34.0668 14.0941 33.9704 14.047V14.047ZM22.82 14.08L17.9318 11.1814C17.7962 11.101 17.9144 10.9552 18.0914 10.984L26.1698 12.304C26.3102 12.3268 26.3498 12.445 26.2382 12.5056L23.276 14.0908C23.2047 14.1255 23.1261 14.1427 23.0467 14.1408C22.9674 14.1389 22.8897 14.1181 22.82 14.08V14.08ZM21.7142 15.718L21.2078 19.9234C21.1934 20.0434 20.9402 20.0704 20.8706 19.9582L16.364 12.7192C16.2932 12.6058 16.5056 12.508 16.6442 12.5902L21.5996 15.5302C21.635 15.5469 21.6647 15.5735 21.6851 15.6069C21.7055 15.6403 21.7156 15.6789 21.7142 15.718V15.718ZM24.437 15.991L29.9162 15.64C30.0698 15.6304 30.1664 15.7462 30.071 15.826L23.8628 21.0184C23.7554 21.1084 23.5364 21.052 23.5502 20.938L24.1214 16.2016C24.1346 16.0906 24.2678 16 24.44 15.991H24.437ZM30.413 14.0506L27.1802 14.257C27.0452 14.2654 26.9756 14.1544 27.0806 14.098L28.9598 13.0924C29.0176 13.0636 29.0817 13.0498 29.1462 13.0524C29.2107 13.0549 29.2735 13.0736 29.3288 13.1068L30.5 13.9C30.578 13.9528 30.527 14.0434 30.413 14.0506V14.0506Z" fill="black"/>
</svg>
