<svg width="115" height="22" viewBox="0 0 115 22" fill="none" xmlns="http://www.w3.org/2000/svg">
<path d="M13.8125 6H11.875C11.7604 5.44271 11.5599 4.95312 11.2734 4.53125C10.9922 4.10938 10.6484 3.75521 10.2422 3.46875C9.84115 3.17708 9.39583 2.95833 8.90625 2.8125C8.41667 2.66667 7.90625 2.59375 7.375 2.59375C6.40625 2.59375 5.52865 2.83854 4.74219 3.32812C3.96094 3.81771 3.33854 4.53906 2.875 5.49219C2.41667 6.44531 2.1875 7.61458 2.1875 9C2.1875 10.3854 2.41667 11.5547 2.875 12.5078C3.33854 13.4609 3.96094 14.1823 4.74219 14.6719C5.52865 15.1615 6.40625 15.4062 7.375 15.4062C7.90625 15.4062 8.41667 15.3333 8.90625 15.1875C9.39583 15.0417 9.84115 14.8255 10.2422 14.5391C10.6484 14.2474 10.9922 13.8906 11.2734 13.4687C11.5599 13.0417 11.7604 12.5521 11.875 12H13.8125C13.6667 12.8177 13.401 13.5495 13.0156 14.1953C12.6302 14.8411 12.151 15.3906 11.5781 15.8437C11.0052 16.2917 10.362 16.6328 9.64844 16.8672C8.9401 17.1016 8.18229 17.2187 7.375 17.2187C6.01042 17.2187 4.79688 16.8854 3.73438 16.2188C2.67188 15.5521 1.83594 14.6042 1.22656 13.375C0.617188 12.1458 0.3125 10.6875 0.3125 9C0.3125 7.3125 0.617188 5.85417 1.22656 4.625C1.83594 3.39583 2.67188 2.44792 3.73438 1.78125C4.79688 1.11458 6.01042 0.781249 7.375 0.781249C8.18229 0.781249 8.9401 0.898437 9.64844 1.13281C10.362 1.36719 11.0052 1.71094 11.5781 2.16406C12.151 2.61198 12.6302 3.15885 13.0156 3.80469C13.401 4.44531 13.6667 5.17708 13.8125 6ZM16.6934 17V5H18.4746V6.8125H18.5996C18.8184 6.21875 19.2142 5.73698 19.7871 5.36719C20.36 4.99739 21.0059 4.8125 21.7246 4.8125C21.86 4.8125 22.0293 4.8151 22.2324 4.82031C22.4355 4.82552 22.5892 4.83333 22.6934 4.84375V6.71875C22.6309 6.70312 22.4876 6.67969 22.2637 6.64844C22.0449 6.61198 21.8132 6.59375 21.5684 6.59375C20.985 6.59375 20.4642 6.71615 20.0059 6.96094C19.5527 7.20052 19.1934 7.53385 18.9277 7.96094C18.6673 8.38281 18.5371 8.86458 18.5371 9.40625V17H16.6934ZM24.8789 17V5H26.7227V17H24.8789ZM25.8164 3C25.457 3 25.1471 2.8776 24.8867 2.63281C24.6315 2.38802 24.5039 2.09375 24.5039 1.75C24.5039 1.40625 24.6315 1.11198 24.8867 0.867187C25.1471 0.622396 25.457 0.5 25.8164 0.5C26.1758 0.5 26.4831 0.622396 26.7383 0.867187C26.9987 1.11198 27.1289 1.40625 27.1289 1.75C27.1289 2.09375 26.9987 2.38802 26.7383 2.63281C26.4831 2.8776 26.1758 3 25.8164 3ZM30.0996 21.5V5H31.8809V6.90625H32.0996C32.235 6.69792 32.4225 6.43229 32.6621 6.10937C32.9069 5.78125 33.2559 5.48958 33.709 5.23438C34.1673 4.97396 34.7871 4.84375 35.5684 4.84375C36.5788 4.84375 37.4694 5.09635 38.2402 5.60156C39.0111 6.10677 39.6126 6.82292 40.0449 7.75C40.4772 8.67708 40.6934 9.77083 40.6934 11.0313C40.6934 12.3021 40.4772 13.4036 40.0449 14.3359C39.6126 15.263 39.0137 15.9818 38.248 16.4922C37.4824 16.9974 36.5996 17.25 35.5996 17.25C34.8288 17.25 34.2116 17.1224 33.748 16.8672C33.2845 16.6068 32.9277 16.3125 32.6777 15.9844C32.4277 15.651 32.235 15.375 32.0996 15.1562H31.9434V21.5H30.0996ZM31.9121 11C31.9121 11.9062 32.0449 12.7057 32.3105 13.3984C32.5762 14.0859 32.9642 14.625 33.4746 15.0156C33.985 15.401 34.61 15.5938 35.3496 15.5938C36.1204 15.5938 36.7637 15.3906 37.2793 14.9844C37.8001 14.5729 38.1908 14.0208 38.4512 13.3281C38.7168 12.6302 38.8496 11.8542 38.8496 11C38.8496 10.1562 38.7194 9.39583 38.459 8.71875C38.2038 8.03646 37.8158 7.4974 37.2949 7.10156C36.7793 6.70052 36.1309 6.5 35.3496 6.5C34.5996 6.5 33.9694 6.6901 33.459 7.07031C32.9486 7.44531 32.5632 7.97135 32.3027 8.64844C32.0423 9.32031 31.9121 10.1042 31.9121 11ZM48.7246 5V6.5625H42.5059V5H48.7246ZM44.3184 2.125H46.1621V13.5625C46.1621 14.0833 46.2376 14.474 46.3887 14.7344C46.5449 14.9896 46.7428 15.1615 46.9824 15.25C47.2272 15.3333 47.485 15.375 47.7559 15.375C47.959 15.375 48.1257 15.3646 48.2559 15.3437C48.3861 15.3177 48.4902 15.2969 48.5684 15.2812L48.9434 16.9375C48.8184 16.9844 48.6439 17.0313 48.4199 17.0781C48.196 17.1302 47.9121 17.1563 47.5684 17.1563C47.0475 17.1563 46.5371 17.0443 46.0371 16.8203C45.5423 16.5964 45.1309 16.2552 44.8027 15.7969C44.4798 15.3385 44.3184 14.7604 44.3184 14.0625V2.125ZM56.2441 17.25C55.1608 17.25 54.2103 16.9922 53.3926 16.4766C52.5801 15.9609 51.9447 15.2396 51.4863 14.3125C51.0332 13.3854 50.8066 12.3021 50.8066 11.0625C50.8066 9.8125 51.0332 8.72135 51.4863 7.78906C51.9447 6.85677 52.5801 6.13281 53.3926 5.61719C54.2103 5.10156 55.1608 4.84375 56.2441 4.84375C57.3275 4.84375 58.2754 5.10156 59.0879 5.61719C59.9056 6.13281 60.541 6.85677 60.9941 7.78906C61.4525 8.72135 61.6816 9.8125 61.6816 11.0625C61.6816 12.3021 61.4525 13.3854 60.9941 14.3125C60.541 15.2396 59.9056 15.9609 59.0879 16.4766C58.2754 16.9922 57.3275 17.25 56.2441 17.25ZM56.2441 15.5938C57.0671 15.5938 57.7441 15.3828 58.2754 14.9609C58.8066 14.5391 59.1999 13.9844 59.4551 13.2969C59.7103 12.6094 59.8379 11.8646 59.8379 11.0625C59.8379 10.2604 59.7103 9.51302 59.4551 8.82031C59.1999 8.1276 58.8066 7.56771 58.2754 7.14062C57.7441 6.71354 57.0671 6.5 56.2441 6.5C55.4212 6.5 54.7441 6.71354 54.2129 7.14062C53.6816 7.56771 53.2884 8.1276 53.0332 8.82031C52.778 9.51302 52.6504 10.2604 52.6504 11.0625C52.6504 11.8646 52.778 12.6094 53.0332 13.2969C53.2884 13.9844 53.6816 14.5391 54.2129 14.9609C54.7441 15.3828 55.4212 15.5938 56.2441 15.5938Z" fill="black"/>
<path d="M77.6211 6H75.6836C75.569 5.44271 75.3685 4.95312 75.082 4.53125C74.8008 4.10938 74.457 3.75521 74.0508 3.46875C73.6497 3.17708 73.2044 2.95833 72.7148 2.8125C72.2253 2.66667 71.7148 2.59375 71.1836 2.59375C70.2148 2.59375 69.3372 2.83854 68.5508 3.32812C67.7695 3.81771 67.1471 4.53906 66.6836 5.49219C66.2253 6.44531 65.9961 7.61458 65.9961 9C65.9961 10.3854 66.2253 11.5547 66.6836 12.5078C67.1471 13.4609 67.7695 14.1823 68.5508 14.6719C69.3372 15.1615 70.2148 15.4062 71.1836 15.4062C71.7148 15.4062 72.2253 15.3333 72.7148 15.1875C73.2044 15.0417 73.6497 14.8255 74.0508 14.5391C74.457 14.2474 74.8008 13.8906 75.082 13.4687C75.3685 13.0417 75.569 12.5521 75.6836 12H77.6211C77.4753 12.8177 77.2096 13.5495 76.8242 14.1953C76.4388 14.8411 75.9596 15.3906 75.3867 15.8437C74.8138 16.2917 74.1706 16.6328 73.457 16.8672C72.7487 17.1016 71.9909 17.2187 71.1836 17.2187C69.819 17.2187 68.6055 16.8854 67.543 16.2188C66.4805 15.5521 65.6445 14.6042 65.0352 13.375C64.4258 12.1458 64.1211 10.6875 64.1211 9C64.1211 7.3125 64.4258 5.85417 65.0352 4.625C65.6445 3.39583 66.4805 2.44792 67.543 1.78125C68.6055 1.11458 69.819 0.781249 71.1836 0.781249C71.9909 0.781249 72.7487 0.898437 73.457 1.13281C74.1706 1.36719 74.8138 1.71094 75.3867 2.16406C75.9596 2.61198 76.4388 3.15885 76.8242 3.80469C77.2096 4.44531 77.4753 5.17708 77.6211 6ZM84.0332 17.2813C83.2728 17.2813 82.5827 17.138 81.9629 16.8516C81.3431 16.5599 80.8509 16.1406 80.4863 15.5938C80.1217 15.0417 79.9395 14.375 79.9395 13.5937C79.9395 12.9062 80.0749 12.349 80.3457 11.9219C80.6165 11.4896 80.9785 11.151 81.4316 10.9062C81.8848 10.6615 82.3848 10.4792 82.9316 10.3594C83.4837 10.2344 84.0384 10.1354 84.5957 10.0625C85.3249 9.96875 85.916 9.89844 86.3691 9.85156C86.8275 9.79948 87.1608 9.71354 87.3691 9.59375C87.5827 9.47396 87.6895 9.26562 87.6895 8.96875V8.90625C87.6895 8.13542 87.4785 7.53646 87.0566 7.10937C86.64 6.68229 86.0072 6.46875 85.1582 6.46875C84.278 6.46875 83.5879 6.66146 83.0879 7.04687C82.5879 7.43229 82.2363 7.84375 82.0332 8.28125L80.2832 7.65625C80.5957 6.92708 81.0124 6.35937 81.5332 5.95312C82.0592 5.54167 82.6322 5.25521 83.252 5.09375C83.877 4.92708 84.4915 4.84375 85.0957 4.84375C85.4811 4.84375 85.9238 4.89062 86.4238 4.98437C86.929 5.07292 87.416 5.25781 87.8848 5.53906C88.3587 5.82031 88.752 6.24479 89.0645 6.8125C89.377 7.38021 89.5332 8.14062 89.5332 9.09375V17H87.6895V15.375H87.5957C87.4707 15.6354 87.2624 15.9141 86.9707 16.2109C86.679 16.5078 86.291 16.7604 85.8066 16.9687C85.3223 17.1771 84.7311 17.2813 84.0332 17.2813ZM84.3145 15.625C85.0436 15.625 85.6582 15.4818 86.1582 15.1953C86.6634 14.9089 87.0436 14.5391 87.2988 14.0859C87.5592 13.6328 87.6895 13.1562 87.6895 12.6562V10.9687C87.6113 11.0625 87.4395 11.1484 87.1738 11.2266C86.9134 11.2995 86.6113 11.3646 86.2676 11.4219C85.929 11.474 85.5983 11.5208 85.2754 11.5625C84.9577 11.599 84.6999 11.6302 84.502 11.6562C84.0228 11.7187 83.5749 11.8203 83.1582 11.9609C82.7467 12.0964 82.4134 12.3021 82.1582 12.5781C81.9082 12.849 81.7832 13.2187 81.7832 13.6875C81.7832 14.3281 82.0202 14.8125 82.4941 15.1406C82.9733 15.4635 83.5801 15.625 84.3145 15.625ZM101.398 7.6875L99.7422 8.15625C99.638 7.88021 99.4844 7.61198 99.2813 7.35156C99.0833 7.08594 98.8125 6.86719 98.4688 6.69531C98.125 6.52344 97.6849 6.4375 97.1484 6.4375C96.4141 6.4375 95.8021 6.60677 95.3125 6.94531C94.8281 7.27865 94.5859 7.70312 94.5859 8.21875C94.5859 8.67708 94.7526 9.03906 95.0859 9.30469C95.4193 9.57031 95.9401 9.79167 96.6484 9.96875L98.4297 10.4063C99.5026 10.6667 100.302 11.0651 100.828 11.6016C101.354 12.1328 101.617 12.8177 101.617 13.6562C101.617 14.3437 101.419 14.9583 101.023 15.5C100.633 16.0417 100.086 16.4688 99.3828 16.7813C98.6797 17.0938 97.862 17.25 96.9297 17.25C95.7057 17.25 94.6927 16.9844 93.8906 16.4531C93.0885 15.9219 92.5807 15.1458 92.3672 14.125L94.1172 13.6875C94.2839 14.3333 94.599 14.8177 95.0625 15.1406C95.5313 15.4635 96.1432 15.625 96.8984 15.625C97.7578 15.625 98.4401 15.4427 98.9453 15.0781C99.4557 14.7083 99.7109 14.2656 99.7109 13.75C99.7109 13.3333 99.5651 12.9844 99.2734 12.7031C98.9818 12.4167 98.5339 12.2031 97.9297 12.0625L95.9297 11.5937C94.8307 11.3333 94.0234 10.9297 93.5078 10.3828C92.9974 9.83073 92.7422 9.14062 92.7422 8.3125C92.7422 7.63542 92.9323 7.03646 93.3125 6.51562C93.6979 5.99479 94.2214 5.58594 94.8828 5.28906C95.5495 4.99219 96.3047 4.84375 97.1484 4.84375C98.3359 4.84375 99.2682 5.10417 99.9453 5.625C100.628 6.14583 101.112 6.83333 101.398 7.6875ZM106.236 9.78125V17H104.393V1H106.236V6.875H106.393C106.674 6.25521 107.096 5.76302 107.658 5.39844C108.226 5.02865 108.981 4.84375 109.924 4.84375C110.742 4.84375 111.458 5.00781 112.072 5.33594C112.687 5.65885 113.163 6.15625 113.502 6.82812C113.846 7.49479 114.018 8.34375 114.018 9.375V17H112.174V9.5C112.174 8.54687 111.926 7.8099 111.432 7.28906C110.942 6.76302 110.262 6.5 109.393 6.5C108.788 6.5 108.247 6.6276 107.768 6.88281C107.294 7.13802 106.919 7.51042 106.643 8C106.372 8.48958 106.236 9.08333 106.236 9.78125Z" fill="#F3DC0D"/>
</svg>
